<?xml version="1.0" encoding="UTF-8"?>
<svg xmlns="http://www.w3.org/2000/svg" xmlns:xlink="http://www.w3.org/1999/xlink" width="150px" height="150px" viewBox="0 0 150 150" version="1.1">
<g id="surface1">
<path style=" stroke:none;fill-rule:nonzero;fill:rgb(0%,0%,0%);fill-opacity:1;" d="M 58.15625 9.375 C 57.238281 9.390625 56.300781 9.457031 55.371094 9.667969 C 49.089844 11.089844 44.679688 16.675781 44.382812 22.851562 C 42.671875 22.582031 40.894531 22.59375 39.109375 23 C 31.59375 24.703125 26.714844 32.324219 28.417969 39.84375 L 37.5 79.25 L 37.5 83.203125 L 33.398438 79.101562 C 27.945312 73.648438 18.929688 73.648438 13.476562 79.101562 C 8.023438 84.554688 8.023438 93.570312 13.476562 99.023438 L 45.265625 130.8125 C 50.773438 136.300781 58.386719 140.625 67.382812 140.625 L 89.0625 140.625 C 107.128906 140.625 121.875 125.878906 121.875 107.8125 L 121.875 75 L 126.269531 52.878906 C 127.75 45.3125 122.707031 37.808594 115.136719 36.328125 C 113.546875 36.015625 111.96875 35.953125 110.449219 36.179688 L 111.476562 30.90625 C 112.953125 23.339844 107.910156 15.835938 100.34375 14.355469 C 92.773438 12.875 85.414062 17.917969 83.9375 25.488281 L 79.25 47.753906 L 72.070312 20.359375 C 72.0625 20.320312 72.082031 20.257812 72.070312 20.214844 L 71.921875 20.214844 C 70.351562 13.742188 64.566406 9.273438 58.15625 9.375 Z M 57.421875 18.898438 C 59.996094 18.3125 62.402344 19.835938 62.988281 22.414062 L 62.988281 22.558594 L 74.707031 67.53125 L 75.585938 71.046875 L 83.9375 71.046875 L 84.8125 67.234375 L 93.015625 27.390625 L 93.015625 27.246094 C 93.523438 24.652344 95.988281 23.078125 98.585938 23.585938 C 101.179688 24.089844 102.753906 26.554688 102.246094 29.148438 L 93.75 71.921875 L 102.976562 73.679688 L 107.8125 49.363281 L 107.960938 49.363281 C 108.464844 46.769531 110.785156 45.050781 113.378906 45.554688 C 115.972656 46.0625 117.546875 48.527344 117.039062 51.125 L 112.648438 74.121094 L 112.5 74.5625 L 112.5 107.8125 C 112.5 120.8125 102.0625 131.25 89.0625 131.25 L 67.382812 131.25 C 61.417969 131.25 56.28125 128.332031 52 124.070312 L 20.070312 92.429688 C 18.199219 90.5625 18.199219 87.5625 20.070312 85.695312 C 21.9375 83.824219 24.9375 83.824219 26.804688 85.695312 L 38.816406 97.851562 L 46.875 105.90625 L 46.875 78.664062 L 46.726562 78.222656 L 37.644531 37.792969 C 37.0625 35.21875 38.585938 32.664062 41.160156 32.078125 C 43.738281 31.496094 46.144531 33.164062 46.726562 35.742188 L 55.078125 72.949219 L 64.304688 70.898438 L 55.957031 33.546875 C 55.945312 33.496094 55.96875 33.445312 55.957031 33.398438 L 53.90625 24.460938 C 53.324219 21.886719 54.84375 19.480469 57.421875 18.898438 Z M 57.421875 18.898438 "/>
</g>
</svg>
